<svg preserveAspectRatio="none" overflow="visible" style="display: block;" width="47.7232" height="87.0382" viewBox="0 0 47.7232 87.0382" fill="none" xmlns="http://www.w3.org/2000/svg">
<g id="Vector 11" filter="url(#filter0_d_0_7)">
<path d="M34.0432 2.06682C34.1287 1.85284 34.1673 1.66564 33.0076 4.97711C31.848 8.28858 29.5594 14.8984 27.8457 20.3339C26.1321 25.7694 25.0022 29.899 24.4406 32.1642C23.7885 34.7939 23.5611 35.4507 23.7922 35.7221C23.9962 35.9618 25.0287 36.1834 28.9159 35.3862C31.9861 34.7565 37.1261 33.5522 39.96 32.9348C42.7939 32.3174 43.3554 32.1866 43.5817 32.3596C43.8956 32.5996 43.709 33.7502 42.8057 36.0942C42.2513 37.5328 41.4492 39.4231 40.4722 41.4547C39.4952 43.4864 38.3772 45.5955 37.7386 46.7752C37.1 47.9548 36.9455 48.1976 33.2904 52.7471C29.6354 57.2965 22.6903 65.8922 18.0245 71.144C13.3586 76.3958 11.0422 78.2477 9.50493 79.3774C7.96762 80.507 7.2317 80.9026 6.86587 81.0073C6.50003 81.1121 6.50415 80.9316 6.52107 80.7511C6.53798 80.5707 6.56682 80.3956 6.91353 79.2739C7.26023 78.1523 7.90525 76.1448 10.0245 71.2356C12.1437 66.3263 15.6314 58.745 17.7381 53.9791C19.8448 49.2132 20.549 47.3201 20.906 46.2092C21.2631 45.0983 21.3389 44.7065 21.1708 44.6199C20.8623 44.4607 20.474 44.5362 17.3666 45.2643C14.4426 45.9495 8.94102 47.2231 5.93169 47.8598C2.92237 48.4966 2.42051 48.4966 2.18749 48.4145C1.95447 48.3324 1.97708 48.1674 2.05172 48.0209C2.39647 47.344 2.84706 46.248 4.22114 43.9507C5.20906 42.299 7.04781 39.2828 10.1654 34.7053C13.283 30.1278 17.5006 24.1329 19.7826 21.1126C22.2069 17.9042 22.4104 17.7528 22.433 17.7528C23.3183 16.5342 31.9635 4.48399 32.6408 3.20146" stroke="black" stroke-width="4" stroke-linecap="round" stroke-linejoin="round"/>
</g>
<defs>
<filter id="filter0_d_0_7" x="0" y="0" width="47.7232" height="87.0382" filterUnits="userSpaceOnUse" color-interpolation-filters="sRGB">
<feFlood flood-opacity="0" result="BackgroundImageFix"/>
<feColorMatrix in="SourceAlpha" type="matrix" values="0 0 0 0 0 0 0 0 0 0 0 0 0 0 0 0 0 0 127 0" result="hardAlpha"/>
<feOffset dx="2" dy="4"/>
<feComposite in2="hardAlpha" operator="out"/>
<feColorMatrix type="matrix" values="0 0 0 0 0.0646212 0 0 0 0 0.969318 0 0 0 0 0 0 0 0 1 0"/>
<feBlend mode="normal" in2="BackgroundImageFix" result="effect1_dropShadow_0_7"/>
<feBlend mode="normal" in="SourceGraphic" in2="effect1_dropShadow_0_7" result="shape"/>
</filter>
</defs>
</svg>
